# AST/ASF file generated using VICON BodyLanguage
# -----------------------------------------------
:version 1.10
:name VICON
:units
  mass 1.0
  length 0.45
  angle deg
:documentation
   .ast/.asf automatically generated from VICON data using
   VICON BodyBuilder and BodyLanguage model FoxedUp or BRILLIANT.MOD
:root
   order TX TY TZ RX RY RZ
   axis XYZ
   position 0 0 0  
   orientation 0 0 0 
:bonedata
  begin
     id 1 
     name lhipjoint
     direction 0.547975 -0.797114 0.253638 
     length 2.36201 
     axis 0 0 0  XYZ
  end
  begin
     id 2 
     name lfemur
     direction 0.34202 -0.939693 0  
     length 7.69075  
     axis 0 0 20  XYZ
    dof rx ry rz
    limits (-160.0 20.0)
           (-70.0 70.0)
           (-60.0 70.0)
  end
  begin
     id 3 
     name ltibia
     direction 0.34202 -0.939693 0   
     length 7.91399   
     axis 0 0 20   XYZ
    dof rx
    limits (-10.0 170.0)
  end
  begin
     id 4 
     name lfoot
     direction 0.0705293 -0.193778 0.978507   
     length 2.13618   
     axis -90 7.62852e-016 20   XYZ
    dof rx rz
    limits (-45.0 90.0)
           (-70.0 20.0)
  end
  begin
     id 5 
     name ltoes
     direction 1.53592e-011 -4.21925e-011 1   
     length 1.07518   
     axis -90 7.62852e-016 20   XYZ
    dof rx
    limits (-90.0 20.0)
  end
  begin
     id 6 
     name rhipjoint
     direction -0.57 -0.782963 0.249136   
     length 2.4047  
     axis 0 0 0  XYZ 
  end
  begin
     id 7 
     name rfemur
     direction -0.34202 -0.939693 0   
     length 7.51486   
     axis 0 0 -20   XYZ
    dof rx ry rz
    limits (-160.0 20.0)
           (-70.0 70.0)
           (-70.0 60.0)
  end
  begin
     id 8 
     name rtibia
     direction -0.34202 -0.939693 0   
     length 8.08317   
     axis 0 0 -20   XYZ
    dof rx
    limits (-10.0 170.0)
 end
 begin
     id 9 
     name rfoot
     direction -0.104954 -0.281256 0.953876   
     length 2.30343  
     axis -90 -7.62852e-016 -20   XYZ
    dof rx rz
    limits (-45.0 90.0)
           (-20.0 70.0)
  end
  begin
     id 10 
     name rtoes
     direction -1.53556e-011 -4.21922e-011 1   
     length 1.14803   
     axis -90 -7.62852e-016 -20   XYZ
    dof rx
    limits (-90.0 20.0)
  end
  begin
     id 11 
     name lowerback
     direction -0.0152855 0.99353 -0.11254   
     length 2.05311   
     axis 0 0 0   XYZ
    dof rx ry rz
    limits (-20.0 45.0)
           (-30.0 30.0)
           (-30.0 30.0)
  end
  begin
     id 12 
     name upperback
     direction -0.00157509 0.999443 -0.033332   
     length 2.06353   
     axis 0 0 0   XYZ
    dof rx ry rz
    limits (-20.0 45.0)
           (-30.0 30.0)
           (-30.0 30.0)
  end
  begin
     id 13 
     name thorax
     direction 0.00577788 0.999804 0.0189484   
     length 2.08472   
     axis 0 0 0   XYZ
    dof rx ry rz
    limits (-20.0 45.0)
           (-30.0 30.0)
           (-30.0 30.0)
  end
  begin
     id 14 
     name lowerneck
     direction -1.09301e-005 0.994719 0.10264   
     length 1.76249   
     axis 0 0 0   XYZ
    dof rx ry rz
    limits (-20.0 45.0)
           (-30.0 30.0)
           (-30.0 30.0)
  end
  begin
     id 15 
     name upperneck
     direction 0.0495018 0.988526 -0.142706   
     length 1.77897   
     axis 0 0 0   XYZ
    dof rx ry rz
    limits (-20.0 45.0)
           (-30.0 30.0)
           (-30.0 30.0)
  end
  begin
     id 16
     name head
     direction 0.0142736 0.998114 -0.0597101  
     length 1.78934  
     axis 0 0 0   XYZ
    dof rx ry rz
    limits (-20.0 45.0)
           (-30.0 30.0)
           (-30.0 30.0)
  end
  begin
     id 17 
     name lclavicle
     direction 0.918111 0.396107 -0.0130883  
     length 3.37276  
     axis 0 0 0   XYZ
    dof ry rz
    limits (-20.0 10.0)
           (0.0 20.0)
  end
  begin
     id 18 
     name lhumerus
     direction 1 -4.48975e-011 -3.26108e-027   
     length 5.34298   
     axis 180 -30 -90   XYZ
    dof rx ry rz
    limits (-60.0 90.0)
           (-90.0 90.0)
           (-90.0 90.0)
  end
  begin
     id 19
     name lradius
     direction 1 -4.48964e-011 -8.84413e-028   
     length 3.67262   
     axis 180 -30 -90   XYZ
    dof rx
    limits (-10.0 170.0)
  end
  begin
     id 20
     name lwrist
     direction 1 -4.48991e-011 -1.24264e-027   
     length 1.83631   
     axis -2.17013e-015 90 90   XYZ
    dof ry
    limits (-180.0 0.0)
 end
  begin
     id 21 
     name lhand
     direction 1 -4.48855e-011 -2.48528e-027   
     length 0.599298   
     axis 1.58582e-015 90 90   XYZ
    dof rx rz
    limits (-90.0 90.0)
           (-45.0 45.0)
  end
  begin
     id 22 
     name lfingers
     direction 1 -4.48811e-011 -4.97056e-027   
     length 0.48317   
     axis 3.17164e-015 90 90   XYZ
    dof rx
    limits (0.0 90.0)
  end
  begin
     id 23
     name lthumb
     direction 0.707107 -6.34882e-011 0.707107   
     length 0.693738   
     axis -90 45 2.85299e-015   XYZ
    dof rx rz
    limits (-45.0 45.0)
           (-45.0 45.0)
  end
  begin
     id 24 
     name rclavicle
     direction -0.920511 0.384752 -0.0680135   
     length 3.43787  
     axis 0 0 0   XYZ 
    dof ry rz
    limits (-10.0 20.0)
           (-20.0 0.0)
  end
  begin
     id 25 
     name rhumerus
     direction -0.999976 -0.00330524 0.00603274  
     length 5.5498   
     axis 180 30 90   XYZ
    dof rx ry rz
    limits (-90.0 60.0)
           (-90.0 90.0)
           (-90.0 90.0)
  end
  begin
     id 26 
     name rradius
     direction -1 -4.48967e-011 8.62438e-027   
     length 3.69401   
     axis 180 30 90   XYZ
    dof rx
    limits (-10.0 170.0)
  end
  begin
     id 27 
     name rwrist
     direction -1 -4.4897e-011 9.54866e-027   
     length 1.84701   
     axis -7.69462e-015 -90 -90   XYZ
    dof ry
    limits (-180.0 0.0)
  end
  begin
     id 28
     name rhand
     direction -1 -4.48982e-011 1.90973e-026   
     length 0.638113   
     axis -1.21857e-014 -90 -90   XYZ
    dof rx rz
    limits (-90.0 90.0)
           (-45.0 45.0)
  end
  begin
     id 29
     name rfingers
     direction -1 -4.48936e-011 3.81946e-026   
     length 0.514463   
     axis -2.43714e-014 -90 -90   XYZ
    dof rx
    limits (0.0 90.0)
  end
  begin
     id 30
     name rthumb
     direction -0.707107 -6.34942e-011 0.707107   
     length 0.738669   
     axis -90 -45 -2.85299e-015   XYZ
    dof rx rz
    limits (-45.0 45.0)
           (-45.0 45.0)
  end
:hierarchy
  begin
    root lhipjoint rhipjoint lowerback
    lhipjoint lfemur
    lfemur ltibia
    ltibia lfoot
    lfoot ltoes
    rhipjoint rfemur
    rfemur rtibia
    rtibia rfoot
    rfoot rtoes
    lowerback upperback
    upperback thorax
    thorax lowerneck lclavicle rclavicle
    lowerneck upperneck
    upperneck head
    lclavicle lhumerus
    lhumerus lradius
    lradius lwrist
    lwrist lhand lthumb
    lhand lfingers
    rclavicle rhumerus
    rhumerus rradius
    rradius rwrist
    rwrist rhand rthumb
    rhand rfingers
  end

#!OML:ASF F:\twosubjects\two\Thursday\Session 1\Rory.ASF
:FULLY-SPECIFIED
:DEGREES
142
root 10.336 18.5465 -3.36935 6.59203 -6.58161 3.00288
lowerback 4.21144 -0.0698914 -5.37205
upperback 3.44923 -0.240621 -2.70251
thorax 1.20593 -0.192816 0.235869
lowerneck -8.51325 -1.81212 -3.36144
upperneck 25.9798 -2.06261 0.433189
head 9.63796 -1.25124 0.5021
rclavicle 4.37326e-014 2.70347e-014
rhumerus 24.6097 8.92154 -81.0928
rradius 72.7154
rwrist -14.3191
rhand -57.3296 24.5718
rfingers 7.12502
rthumb -29.6062 -3.08604
lclavicle 4.37326e-014 2.70347e-014
lhumerus 28.1117 -10.8106 75.8954
lradius 67.3921
lwrist 7.72778
lhand -30.1512 67.7283
lfingers 7.12502
lthumb -3.46344 -97.6799
rfemur -18.562 -0.747162 11.9146
rtibia 50.5286
rfoot -4.89688 6.72479
rtoes -18.9589
lfemur -16.9741 5.26693 -27.2773
ltibia 21.9497
lfoot -11.0273 1.38814
ltoes 7.65902
143
root 10.3424 18.5407 -3.33425 6.70237 -6.71214 3.23069
lowerback 3.90573 -0.108837 -5.87117
upperback 3.50859 -0.278366 -2.67822
thorax 1.44559 -0.227503 0.53747
lowerneck -8.22763 -1.696 -3.4158
upperneck 26.5919 -1.87877 0.335047
head 9.79905 -1.18911 0.498016
rclavicle -1.59028e-015 1.98785e-014
rhumerus 24.6306 9.05582 -81.175
rradius 73.0057
rwrist -13.8971
rhand -57.9653 24.0046
rfingers 7.12502
rthumb -30.2128 -3.54391
lclavicle -1.59028e-015 1.98785e-014
lhumerus 27.8633 -10.6033 76.1519
lradius 67.6647
lwrist 7.5595
lhand -30.051 67.5494
lfingers 7.12502
lthumb -3.3667 -97.5025
rfemur -19.1904 -0.887425 11.5495
rtibia 51.1075
rfoot -5.65703 6.48159
rtoes -18.8062
lfemur -16.9638 4.52883 -27.4895
ltibia 22.0209
lfoot -10.941 2.52585
ltoes 7.32645
144
root 10.3729 18.5228 -3.30122 6.31126 -7.29439 3.13213
lowerback 4.34259 0.0234896 -5.70237
upperback 3.57624 -0.130872 -2.73851
thorax 1.26211 -0.147353 0.378694
lowerneck -7.77285 -1.62267 -3.45431
upperneck 27.2214 -1.79396 0.34603
head 9.9381 -1.16113 0.519842
rclavicle 1.13307e-014 1.35174e-014
rhumerus 24.3898 9.19211 -81.4251
rradius 73.3133
rwrist -13.5937
rhand -58.4848 24.3769
rfingers 7.12502
rthumb -30.7082 -3.07981
lclavicle 1.13307e-014 1.35174e-014
lhumerus 27.8095 -10.5473 75.9715
lradius 67.795
lwrist 7.93835
lhand -30.0026 68.4459
lfingers 7.12502
lthumb -3.31993 -98.3998
rfemur -19.3879 -0.882764 11.3129
rtibia 51.5634
rfoot -6.36405 6.39159
rtoes -19.0829
lfemur -16.3598 4.00638 -27.4454
ltibia 21.9021
lfoot -11.3279 3.15919
ltoes 7.58787
145
root 10.3663 18.5302 -3.25914 6.14138 -6.79688 3.12274
lowerback 4.39196 -0.203016 -5.93365
upperback 3.71032 -0.434798 -2.73674
thorax 1.39164 -0.308284 0.517481
lowerneck -8.04452 -1.64402 -3.22993
upperneck 28.5975 -1.81908 0.185631
head 10.4945 -1.18135 0.415806
rclavicle -1.70955e-014 3.97569e-015
rhumerus 24.2483 9.25157 -81.7727
rradius 73.5155
rwrist -13.4987
rhand -58.2369 25.4656
rfingers 7.12502
rthumb -30.4718 -2.03523
lclavicle -1.70955e-014 3.97569e-015
lhumerus 27.8558 -10.3748 75.8226
lradius 67.7518
lwrist 8.07142
lhand -30.2291 69.1993
lfingers 7.12502
lthumb -3.53873 -99.1496
rfemur -19.3648 -1.39743 11.3717
rtibia 51.8644
rfoot -7.44011 5.46295
rtoes -18.1483
lfemur -15.9059 4.4456 -27.4016
ltibia 21.7364
lfoot -11.6585 2.03081
ltoes 6.6198
146
root 10.3712 18.5386 -3.2273 6.09367 -6.62533 3.1723
lowerback 4.35424 -0.338528 -6.15761
upperback 3.82132 -0.611431 -2.76381
thorax 1.54098 -0.405897 0.617498
lowerneck -9.20607 -1.67064 -2.55897
upperneck 30.7682 -1.74259 -0.559467
head 11.5436 -1.17838 0.0163395
rclavicle -4.96962e-015 -1.59028e-014
rhumerus 24.5324 9.28506 -81.9843
rradius 73.3079
rwrist -13.3526
rhand -57.2225 24.8211
rfingers 7.12502
rthumb -29.504 -2.85481
lclavicle -4.96962e-015 -1.59028e-014
lhumerus 27.9212 -10.065 75.9743
lradius 67.6294
lwrist 8.15962
lhand -30.3515 69.519
lfingers 7.12502
lthumb -3.65693 -99.4674
rfemur -19.6874 -1.73272 11.2526
rtibia 52.1198
rfoot -8.10233 4.59516
rtoes -18.4158
lfemur -15.7112 5.11916 -27.5216
ltibia 21.6938
lfoot -11.7323 1.40033
ltoes 5.39549
